<?xml version="1.0" standalone="no"?>
<!DOCTYPE svg PUBLIC "-//W3C//DTD SVG 20010904//EN"
 "http://www.w3.org/TR/2001/REC-SVG-20010904/DTD/svg10.dtd">
<svg version="1.0" xmlns="http://www.w3.org/2000/svg"
 width="512.000000pt" height="512.000000pt" viewBox="0 0 512.000000 512.000000"
 preserveAspectRatio="xMidYMid meet">
<metadata>
Created by potrace 1.11, written by Peter Selinger 2001-2013
</metadata>
<g transform="translate(0.000000,512.000000) scale(0.100000,-0.100000)"
fill="#000000" stroke="none">
<path d="M2369 5116 c-2 -2 -35 -7 -74 -10 -38 -3 -81 -8 -95 -11 -40 -6 -142
-25 -174 -31 -49 -9 -236 -61 -311 -87 -129 -45 -296 -120 -409 -185 -34 -19
-70 -40 -81 -46 -72 -40 -276 -191 -354 -261 -78 -71 -173 -166 -169 -170 2
-2 30 -7 63 -10 33 -4 67 -8 75 -10 8 -1 49 -6 90 -10 41 -4 82 -9 90 -10 8
-1 48 -6 87 -10 83 -8 74 11 98 -190 19 -157 25 -205 31 -255 3 -30 7 -56 8
-57 1 -1 31 26 66 61 288 278 650 454 1035 502 78 9 310 11 400 2 269 -26 554
-128 800 -287 22 -14 42 -28 45 -31 19 -22 70 -49 86 -46 11 2 46 7 79 10 207
23 400 48 407 55 3 3 9 40 12 82 4 42 9 87 11 100 2 13 6 51 10 84 3 33 8 74
10 90 2 17 7 51 10 77 l5 47 -67 54 c-75 60 -258 187 -269 187 -4 0 -15 6 -23
14 -20 18 -257 137 -331 166 -135 54 -392 131 -490 146 -14 2 -38 6 -55 9 -16
2 -46 7 -65 10 -19 3 -53 7 -75 11 -44 6 -471 15 -476 10z"/>
<path d="M4309 4418 c-4 -15 -9 -54 -25 -198 -3 -25 -7 -63 -10 -85 -2 -22 -7
-60 -9 -85 -12 -95 -17 -117 -28 -117 -18 -1 -120 -12 -247 -28 -63 -8 -140
-17 -170 -20 -30 -4 -56 -8 -57 -9 -1 0 29 -33 66 -71 247 -257 403 -550 471
-884 28 -138 34 -201 34 -351 1 -156 -9 -259 -35 -375 -11 -49 -22 -97 -24
-105 -1 -9 -15 -51 -29 -94 -26 -76 -42 -116 -89 -216 -22 -48 -136 -242 -146
-250 -4 -3 -17 -20 -30 -38 -25 -35 -25 -37 -1 -222 10 -76 17 -133 25 -205 3
-22 7 -56 10 -76 l6 -36 127 -12 c70 -8 136 -15 147 -16 24 -4 90 -12 161 -20
46 -5 52 -3 75 22 67 77 205 274 253 363 10 19 30 55 43 80 43 76 109 230 151
350 46 133 96 328 108 423 3 23 7 48 9 55 11 32 20 203 20 372 0 222 -8 311
-46 500 -77 384 -255 768 -500 1076 -112 140 -254 289 -260 272z"/>
<path d="M544 4136 c-212 -273 -355 -555 -450 -888 -18 -65 -35 -130 -38 -145
-2 -15 -9 -53 -15 -83 -30 -160 -36 -242 -36 -465 1 -179 5 -264 20 -360 10
-64 13 -81 20 -120 13 -73 66 -269 92 -340 14 -38 26 -74 27 -80 9 -34 87
-205 138 -301 62 -117 174 -286 265 -399 83 -103 231 -260 238 -254 2 3 6 29
9 59 3 30 7 71 10 90 5 33 18 146 32 270 3 30 9 58 12 62 4 3 32 9 62 13 30 3
66 8 80 10 14 2 48 6 75 10 49 6 66 8 170 20 28 3 59 7 70 9 11 3 23 5 28 5 4
1 -12 18 -35 39 -61 55 -183 204 -250 306 -139 212 -247 510 -275 758 -9 81
-9 325 -1 404 30 274 136 563 291 792 57 84 74 117 71 138 -4 39 -15 131 -19
158 -2 11 -11 89 -21 173 l-18 151 -40 6 c-23 3 -68 8 -101 11 -33 3 -73 8
-90 10 -16 2 -59 7 -95 11 -36 3 -85 10 -110 13 l-46 7 -70 -90z"/>
<path d="M3790 1280 c-42 -41 -91 -86 -109 -100 -19 -14 -40 -30 -46 -37 -23
-23 -184 -123 -256 -161 -172 -88 -384 -158 -539 -177 -30 -4 -82 -11 -115
-15 -62 -8 -341 -5 -385 4 -14 3 -55 10 -92 16 -82 13 -290 72 -350 99 -198
90 -243 115 -362 198 l-78 55 -61 -6 c-33 -4 -108 -13 -166 -21 -58 -7 -131
-16 -161 -20 -63 -7 -113 -15 -116 -18 -5 -4 -32 -228 -50 -407 -3 -36 -8 -67
-10 -69 -13 -14 314 -242 456 -318 218 -116 506 -218 725 -257 17 -3 53 -10
80 -15 28 -5 57 -9 65 -9 8 -1 44 -4 80 -9 87 -10 426 -10 520 0 148 17 193
24 300 49 468 106 894 339 1237 676 36 35 62 66 59 70 -8 7 -13 8 -102 16 -39
4 -79 8 -89 10 -11 2 -51 7 -90 11 -38 4 -86 9 -105 11 -19 3 -47 6 -62 7 -36
4 -35 3 -43 67 -4 30 -13 103 -20 161 -8 58 -17 135 -21 170 -11 103 -10 103
-94 19z"/>
</g>
</svg>
